HIERARCHY
ROOT Hips
{
	OFFSET 0.00000 0.00000 0.00000
	CHANNELS 6 Xposition Yposition Zposition Zrotation Yrotation Xrotation 
	JOINT LHipJoint
	{
		OFFSET 0 0 0
		CHANNELS 3 Zrotation Yrotation Xrotation
		JOINT LeftHip
		{
			OFFSET 1.67711 -1.75950 0.70433
			CHANNELS 3 Zrotation Yrotation Xrotation
			JOINT LeftKnee
			{
				OFFSET 2.44937 -6.72958 0.00000
				CHANNELS 3 Zrotation Yrotation Xrotation
				JOINT LeftAnkle
				{
					OFFSET 2.61292 -7.17894 0.00000
					CHANNELS 3 Zrotation Yrotation Xrotation
					JOINT LeftToe
					{
						OFFSET 0.17811 -0.48914 1.82515
						CHANNELS 3 Zrotation Yrotation Xrotation
						End Site
						{
							OFFSET -0.00112 -0.00292 0.95564
						}
					}
				}
			}
		}
	}
	JOINT RHipJoint
	{
		OFFSET 0 0 0
		CHANNELS 3 Zrotation Yrotation Xrotation
		JOINT RightHip
		{
			OFFSET -1.61866 -1.75949 0.70433
			CHANNELS 3 Zrotation Yrotation Xrotation
			JOINT RightKnee
			{
				OFFSET -2.36243 -6.49072 0.00000
				CHANNELS 3 Zrotation Yrotation Xrotation
				JOINT RightAnkle
				{
					OFFSET -2.64336 -7.26259 0.00000
					CHANNELS 3 Zrotation Yrotation Xrotation
					JOINT RightToe
					{
						OFFSET -0.18169 -0.49935 1.90192
						CHANNELS 3 Zrotation Yrotation Xrotation
						End Site
						{
							OFFSET 0.00039 0.00229 0.99264
						}
					}
				}
			}
		}
	}
	JOINT lowerback
	{
		OFFSET 0 0 0
		CHANNELS 3 Zrotation Yrotation Xrotation
		JOINT Chest
		{
			OFFSET -0.01926 2.19655 -0.12599
			CHANNELS 3 Zrotation Yrotation Xrotation
			JOINT Chest2
			{
				OFFSET 0.01663 2.20532 -0.00079
				CHANNELS 3 Zrotation Yrotation Xrotation
				JOINT lowerneck
				{
					OFFSET 0 0 0
					CHANNELS 3 Zrotation Yrotation Xrotation
					JOINT Neck
					{
						OFFSET 0.10604 1.75174 0.14226
						CHANNELS 3 Zrotation Yrotation Xrotation
						JOINT Head
						{
							OFFSET -0.09898 1.68516 -0.48414
							CHANNELS 3 Zrotation Yrotation Xrotation
							End Site
							{
								OFFSET -0.02896 1.78316 -0.18415
							}
						}
					}
				}
				JOINT LeftCollar
				{
					OFFSET 0 0 0
					CHANNELS 3 Zrotation Yrotation Xrotation
					JOINT LeftShoulder
					{
						OFFSET 3.30655 1.16959 -0.30867
CHANNELS 3 Zrotation Xrotation Yrotation
						JOINT LeftElbow
						{
OFFSET 0 -5.352890 -0.000000
CHANNELS 3 Zrotation Xrotation Yrotation
							JOINT LeftWrist
							{
OFFSET 0 -3.277270 -0.000000
CHANNELS 3 Zrotation Xrotation Yrotation
								JOINT lhand
								{
									OFFSET 0 0 0
CHANNELS 3 Zrotation Xrotation Yrotation
									JOINT LFingers
									{
OFFSET 0 -0.544430 0.000090
CHANNELS 3 Zrotation Xrotation Yrotation
										End Site
										{
OFFSET 0 -0.438910 -0.000000
										}
									}
								}
								JOINT LThumb
								{
OFFSET 0 0.000000 0.000000
CHANNELS 3 Zrotation Xrotation Yrotation
									End Site
									{
OFFSET 0 -0.445640 0.445700
									}
								}
							}
						}
					}
				}
				JOINT RightCollar
				{
					OFFSET 0 0 0
					CHANNELS 3 Zrotation Yrotation Xrotation
					JOINT RightShoulder
					{
						OFFSET -3.27172 0.97864 -0.36131
CHANNELS 3 Zrotation Xrotation Yrotation
						JOINT RightElbow
						{
OFFSET 0 -5.520760 -0.005900
CHANNELS 3 Zrotation Xrotation Yrotation
							JOINT RightWrist
							{
OFFSET 0 -3.323640 -0.000000
CHANNELS 3 Zrotation Xrotation Yrotation
								JOINT rhand
								{
									OFFSET 0 0 0
CHANNELS 3 Zrotation Xrotation Yrotation
									JOINT RFingers
									{
OFFSET 0 -0.732230 -0.000000
CHANNELS 3 Zrotation Xrotation Yrotation
										End Site
										{
OFFSET 0 -0.590350 -0.000000
										}
									}
								}
								JOINT RThumb
								{
OFFSET 0 0.000000 0.000000
CHANNELS 3 Zrotation Xrotation Yrotation
									End Site
									{
OFFSET 0 -0.599360 0.599360
									}
								}
							}
						}
					}
				}
			}
		}
	}
}
MOTION
Frames: 11
Frame Time: 0.008333333333333333
10.497464 21.261372 -23.050666 -320.542825 -79.693198 328.642306 0.000000 0.000000 0.000000 -25.663800 -9.809704 -0.967047 3.878636 11.993229 35.713321 -0.343972 -16.496918 19.742119 6.505161 -14.897766 -46.971773 0.000000 0.000000 0.000000 5.037449 12.776186 -52.127305 -10.779677 -17.825556 62.064052 -1.011949 -0.571140 -19.234715 -0.274787 3.346412 -9.247014 -3.709722 -0.639352 12.261003 1.982762 -1.378243 4.409993 4.358187 -0.789790 -2.110297 13.831143 15.616302 -4.058028 -25.090369 24.432298 15.101207 -7.727888 10.690483 10.612535 0.000000 0.000000 0.000000 9.142544 13.007062 -39.283941 37.332013 -46.400667 16.482222 25.580606 -2.512368 -26.900763 0.000000 0.000000 0.000000 -7.125000 0.000000 0.000000 -5.221051 59.265958 1.802646 0.000000 0.000000 0.000000 -10.952784 1.790898 30.269192 -22.297586 -33.311212 -6.748807 -14.616697 -11.642289 -22.059817 0.000000 0.000000 0.000000 7.125000 0.000000 0.000000 8.940598 7.483108 7.798629
9.595103 21.496975 -23.113443 -325.040760 -80.759514 333.440270 0.000000 0.000000 0.000000 -23.946991 -9.066982 -10.957403 8.882326 16.723956 55.671183 -0.483016 -16.098171 17.168719 7.300926 -15.580006 -50.003321 0.000000 0.000000 0.000000 8.282048 12.417062 -47.676602 -10.320751 -17.586293 60.555054 -1.365361 -0.151004 -22.159096 -0.370487 3.908733 -10.820206 -0.642481 -0.850548 12.375646 1.798130 -1.319756 4.577418 2.418544 -0.747147 -2.085304 15.364862 16.037830 -3.939092 -26.051338 25.230186 15.334461 -8.154811 11.082219 11.273797 0.000000 0.000000 0.000000 10.026080 13.511277 -41.723930 30.339564 -41.178706 11.634016 24.013847 -4.168837 -27.929080 0.000000 0.000000 0.000000 -7.125000 0.000000 0.000000 -7.305327 60.010935 2.463854 0.000000 0.000000 0.000000 -10.592133 1.469749 31.294349 -25.357203 -36.566237 -8.502008 -16.207999 -13.488168 -21.352834 0.000000 0.000000 0.000000 7.125000 0.000000 0.000000 7.901037 7.998990 6.791151
8.771468 21.726596 -23.205083 -344.828972 -81.128309 353.393863 0.000000 0.000000 0.000000 -19.490275 -9.417966 -24.874090 16.833914 19.754064 80.705469 -1.031798 -18.574293 13.277484 7.081756 -15.399047 -49.180473 0.000000 0.000000 0.000000 13.691371 11.107449 -42.848769 -9.429704 -17.076341 57.564424 -1.685910 -0.191602 -24.642748 -0.303293 3.540334 -9.787084 3.014670 -0.972003 11.659515 2.042796 -1.114948 4.960115 0.564964 -0.622908 -1.363881 15.422250 16.172711 -3.834751 -26.715351 25.472510 14.850121 -8.347927 11.195416 11.275270 0.000000 0.000000 0.000000 10.649237 14.275152 -45.919713 26.942893 -38.123018 9.464519 30.661002 11.570515 -38.472061 0.000000 0.000000 0.000000 -7.125000 0.000000 0.000000 -7.092272 72.562073 4.743470 0.000000 0.000000 0.000000 -9.948754 1.116186 30.934691 -27.667358 -38.808197 -9.914603 -15.963648 -13.764657 -21.968688 0.000000 0.000000 0.000000 7.125000 0.000000 0.000000 8.088024 7.404821 7.050662
7.974148 21.903377 -23.284128 -357.219639 -79.988500 365.664174 0.000000 0.000000 0.000000 -16.593068 -8.833471 -38.403558 22.968960 19.786605 98.710710 -1.023385 -17.578813 5.873298 7.029255 -15.356470 -48.984979 0.000000 0.000000 0.000000 17.864133 8.078599 -38.316244 -8.524566 -16.491814 54.430896 -1.941144 0.129066 -26.342577 -0.342889 3.762624 -10.409892 4.402531 -0.646036 11.592353 2.109577 -0.513713 4.645854 -0.218810 -0.311165 -1.651614 15.468066 16.054102 -2.889769 -27.136977 25.390674 14.622093 -8.611403 11.229579 11.073761 0.000000 0.000000 0.000000 8.519958 15.478106 -38.400957 23.500007 -34.631075 7.420505 28.662729 0.836934 -26.149982 0.000000 0.000000 0.000000 -7.125000 0.000000 0.000000 -1.390729 59.211888 0.452613 0.000000 0.000000 0.000000 -9.911162 2.051312 31.712688 -28.327884 -39.416271 -10.331216 -17.531256 -16.762831 -21.799769 0.000000 0.000000 0.000000 7.125000 0.000000 0.000000 7.088923 7.368011 6.169906
7.184346 22.042908 -23.345753 -371.209027 -77.122709 379.417833 0.000000 0.000000 0.000000 -13.774545 -9.358967 -50.780378 25.433765 19.276880 106.073468 -0.513996 -13.378578 0.070060 6.762187 -15.128310 -47.969083 0.000000 0.000000 0.000000 22.913545 5.255385 -33.868758 -7.611690 -15.826068 51.151498 -2.255117 0.985693 -28.155579 -0.148886 2.485945 -6.850800 7.320547 0.095212 11.054101 1.977786 0.760940 4.270029 -2.146249 0.348023 -1.641510 16.929201 15.952982 -3.548860 -26.456533 25.226487 15.650283 -8.598295 11.177550 11.631017 0.000000 0.000000 0.000000 8.753693 17.403609 -37.015902 23.230247 -34.339570 7.267740 26.015649 -3.312081 -26.950999 0.000000 0.000000 0.000000 -7.125000 0.000000 0.000000 -4.744765 59.424716 1.647566 0.000000 0.000000 0.000000 -9.058325 4.033202 31.319379 -27.344415 -38.505544 -9.712753 -17.372322 -15.859079 -21.963772 0.000000 0.000000 0.000000 7.125000 0.000000 0.000000 7.199535 7.222057 6.288476
6.364177 22.038820 -23.334334 -375.006912 -73.702801 382.912773 0.000000 0.000000 0.000000 -14.185719 -8.779699 -60.215765 24.094384 19.592655 102.049900 -0.588226 -15.552712 -2.650563 3.943354 -12.081442 -36.025226 0.000000 0.000000 0.000000 26.248772 2.113250 -30.170795 -7.188462 -15.488558 49.583524 -2.618293 0.759535 -30.450022 -0.159952 2.576592 -7.102176 8.098612 0.202958 9.947341 2.653269 0.909458 3.974876 -1.883104 0.429736 -1.324170 15.785876 15.968453 -3.409650 -26.533168 25.442643 15.995805 -8.440749 11.184187 11.633427 0.000000 0.000000 0.000000 4.321387 19.028463 -31.693895 20.708760 -31.486461 5.897232 17.202466 -5.413343 -22.481894 0.000000 0.000000 0.000000 -7.125000 0.000000 0.000000 -12.170081 52.993738 2.424054 0.000000 0.000000 0.000000 -10.799557 5.145317 33.575201 -25.110501 -36.316254 -8.355456 -12.690576 -12.955596 -23.217537 0.000000 0.000000 0.000000 7.125000 0.000000 0.000000 10.192783 6.554566 9.111899
5.500924 22.023554 -23.269699 -375.200376 -71.418558 382.764057 0.000000 0.000000 0.000000 -18.736802 -8.182674 -63.100374 18.639693 19.950858 86.019024 -0.430157 -13.669654 -2.841297 0.984840 -6.310539 -17.690114 0.000000 0.000000 0.000000 28.254497 -0.521816 -26.579280 -6.931934 -15.274307 48.616476 -2.832618 -0.388422 -32.044083 -0.288595 3.453566 -9.544252 10.454860 2.173046 9.438914 -0.186823 3.686675 3.657778 -6.415179 1.897937 -0.748793 21.384746 14.914544 -6.692157 -24.810630 23.241594 19.032067 -9.117838 10.319470 13.395366 0.000000 0.000000 0.000000 11.565060 18.402715 -36.222421 17.499141 -27.510829 4.315539 12.800379 -5.304158 -17.822878 0.000000 0.000000 0.000000 -7.125000 0.000000 0.000000 -14.598702 47.679507 0.982816 0.000000 0.000000 0.000000 -4.349489 6.562868 27.764008 -23.040242 -34.132507 -7.161050 -13.386530 -8.583866 -22.885966 0.000000 0.000000 0.000000 7.125000 0.000000 0.000000 9.747022 6.803116 8.653027
4.526162 22.200386 -23.070531 -375.911935 -70.257527 382.638444 0.000000 0.000000 0.000000 -22.566002 -6.338404 -57.429239 11.007889 17.929442 62.795695 -0.409686 -11.149371 3.687092 0.086904 -1.572391 -4.331696 0.000000 0.000000 0.000000 29.060328 -4.361012 -21.582866 -6.305737 -14.717535 46.195573 -2.525853 0.138871 -30.083000 -0.596695 4.943700 -13.748427 9.427600 2.329019 7.224753 -0.020092 3.582336 3.750444 -5.528182 1.903354 0.465290 21.754244 15.337353 -5.433966 -24.952948 24.106785 19.195226 -9.104105 10.807006 13.546054 0.000000 0.000000 0.000000 12.622739 20.550401 -34.859788 15.870984 -25.345288 3.590611 5.854424 -5.754601 -14.145042 0.000000 0.000000 0.000000 -7.125000 0.000000 0.000000 -19.547369 43.299584 -0.856381 0.000000 0.000000 0.000000 -4.689698 6.398126 26.816548 -20.879422 -31.686993 -5.986648 -12.964872 -5.065528 -23.394552 0.000000 0.000000 0.000000 7.125000 0.000000 0.000000 10.029127 6.346014 9.004179
3.424294 22.084613 -22.834553 -380.364257 -68.955347 385.594609 0.000000 0.000000 0.000000 -23.351207 -1.602233 -50.600485 5.787033 14.213285 44.110382 0.252409 -4.727138 12.499626 2.725066 -10.231888 -29.734808 0.000000 0.000000 0.000000 30.690232 -8.249568 -16.134547 -5.905834 -14.336322 44.602214 -2.219800 1.641684 -27.750629 -0.968100 6.264293 -17.553192 9.217475 2.800796 4.927526 -0.481887 4.015542 3.297448 -5.790103 2.161992 1.357733 23.662502 15.656571 -5.124790 -23.085992 24.249845 21.043182 -8.685313 11.102487 14.222288 0.000000 0.000000 0.000000 17.258889 23.595454 -34.187403 15.755205 -25.187454 3.541183 0.971045 -7.104113 -13.987537 0.000000 0.000000 0.000000 -7.125000 0.000000 0.000000 -23.671979 42.643191 -1.466240 0.000000 0.000000 0.000000 -2.821111 8.133648 25.955973 -21.756143 -32.700295 -6.453618 -12.285251 -6.056788 -21.385743 0.000000 0.000000 0.000000 7.125000 0.000000 0.000000 10.386643 8.428281 8.903790
2.182281 21.798819 -22.550569 -384.431301 -67.389504 388.417082 0.000000 0.000000 0.000000 -16.790117 -9.208413 -38.685766 3.517450 11.488923 33.947139 0.647286 14.102576 16.280848 4.229966 -12.459747 -37.379312 0.000000 0.000000 0.000000 31.870260 -11.769334 -11.130254 -6.060259 -14.486029 45.222237 -2.000834 4.253591 -25.753596 -1.232360 7.039975 -19.833928 7.433472 3.100645 2.656275 -0.512256 4.243244 2.139429 -4.730054 2.222260 1.311903 23.805742 15.958527 -5.206986 -20.809379 24.368114 23.080087 -7.793766 11.253359 14.722603 0.000000 0.000000 0.000000 20.452433 26.267258 -28.538132 16.334151 -25.971609 3.791132 3.952144 -8.085327 -19.150126 0.000000 0.000000 0.000000 -7.125000 0.000000 0.000000 -23.201081 47.735122 1.641455 0.000000 0.000000 0.000000 -0.958835 11.142624 23.983237 -23.109290 -34.207465 -7.199962 -11.483226 -5.739798 -22.444632 0.000000 0.000000 0.000000 7.125000 0.000000 0.000000 10.918824 7.461565 9.588829
0.893062 21.129993 -22.176022 -385.247097 -65.207390 389.015509 0.000000 0.000000 0.000000 -18.036234 -0.735629 -36.795513 3.635896 11.659194 34.537223 0.470952 6.376919 12.309170 0.697802 -5.303166 -14.783434 0.000000 0.000000 0.000000 31.091362 -15.465969 -11.430139 -8.600374 -16.541159 54.693756 -1.512431 7.639828 -22.008597 -1.827808 8.497232 -24.235316 2.767735 0.143101 -0.595852 2.442204 0.096575 1.075335 0.954649 0.052338 1.438554 16.384962 18.420583 -2.242396 -20.893144 28.977987 22.057517 -5.802125 12.823606 13.620461 0.000000 0.000000 0.000000 10.229599 27.988307 -8.852011 15.819397 -25.275064 3.568519 17.863993 -3.614602 -25.805066 0.000000 0.000000 0.000000 -7.125000 0.000000 0.000000 -13.055575 56.430880 3.708835 0.000000 0.000000 0.000000 -8.150564 13.697238 36.536964 -25.092770 -36.298559 -8.344776 -15.110261 -15.218643 -17.314733 0.000000 0.000000 0.000000 7.125000 0.000000 0.000000 8.460685 12.230101 6.550779
